<svg width="26" height="27" viewBox="0 0 26 27" fill="none" xmlns="http://www.w3.org/2000/svg">
<path d="M12.0537 1.89557H11.0537V2.89557V7.89529V8.89529H12.0537H13.2808H14.2808V7.89529V2.89557V1.89557H13.2808H12.0537Z" fill="white" stroke="#211F24" stroke-width="2"/>
<path d="M18.3271 11.9897H17.3271V12.9897V14.2285V15.2285H18.3271H23.2796H24.2796V14.2285V12.9897V11.9897H23.2796H18.3271Z" fill="white" stroke="#211F24" stroke-width="2"/>
<path d="M2.05469 11.9898H1.05469V12.9898V14.2286V15.2286H2.05469H7.00719H8.00719V14.2286V12.9898V11.9898H7.00719H2.05469Z" fill="white" stroke="#211F24" stroke-width="2"/>
<path d="M12.0537 18.3232H11.0537V19.3232V24.323V25.323H12.0537H13.2808H14.2808V24.323V19.3232V18.3232H13.2808H12.0537Z" fill="white" stroke="#211F24" stroke-width="2"/>
<path d="M12.6681 7.56146C9.3724 7.56146 6.66797 10.3054 6.66797 13.6092C6.66797 16.9131 9.3724 19.657 12.6681 19.657C15.9637 19.657 18.6681 16.9131 18.6681 13.6092C18.6681 10.3054 15.9637 7.56146 12.6681 7.56146Z" fill="white" stroke="#211F24" stroke-width="2"/>
</svg>
