<svg width="25" height="26" viewBox="0 0 25 26" fill="none" xmlns="http://www.w3.org/2000/svg">
  <path d="M4.4839 21.6048H20.5274C22.4286 21.6004 23.9664 20.0597 23.9664 18.1586V14.535C23.9664 13.9027 23.4533 13.3897 22.8196 13.3897C22.1873 13.3897 21.6743 13.9027 21.6743 14.535V18.1963C21.6743 18.83 21.1612 19.3431 20.5275 19.3431H4.48394C3.85023 19.3431 3.33715 18.83 3.33715 18.1963V12.3024H22.8196C23.1248 12.3038 23.417 12.1846 23.6321 11.9695C23.8486 11.753 23.9678 11.4608 23.9664 11.157V7.93462C23.9664 6.03345 22.4286 4.49276 20.5274 4.4884H4.48388C2.58271 4.49276 1.04492 6.03345 1.04492 7.93462V18.1586C1.04492 20.0598 2.58273 21.6004 4.4839 21.6048ZM4.4839 6.78802H20.5274C21.1611 6.78802 21.6742 7.3011 21.6742 7.93482V10.0104H3.33711V7.93482C3.33711 7.3011 3.85019 6.78802 4.4839 6.78802Z" fill="#1C1A1F"/>
  <path d="M6.4046 14.7429C5.77089 14.7429 5.25781 15.256 5.25781 15.8897C5.25781 16.522 5.77089 17.0351 6.4046 17.0351H11.0178C11.6501 17.0351 12.1632 16.522 12.1632 15.8897C12.1632 15.256 11.6501 14.7429 11.0178 14.7429H6.4046Z" fill="#1C1A1F"/>
</svg>
