<svg width="15" height="15" viewBox="0 0 15 15" fill="none" xmlns="http://www.w3.org/2000/svg">
<g clip-path="url(#clip0_17431_100335)">
<path d="M12.0472 3.70117H9.55508V2.93117C9.55508 2.04906 8.84085 1.33545 7.95936 1.33545H6.13936C5.25725 1.33545 4.54364 2.04967 4.54364 2.93117V3.70117H2.0515C1.67361 3.70117 1.36572 4.00906 1.36572 4.38695C1.36572 4.76483 1.67361 5.07272 2.0515 5.07272H2.3315L3.1015 13.1784C3.18572 14.0042 3.85728 14.6206 4.69722 14.6206H9.41508C10.2409 14.6206 10.9272 14.0048 11.0108 13.1784L11.7808 5.07272H12.0608C12.4387 5.07272 12.7466 4.76483 12.7466 4.38695C12.7471 4.0096 12.4393 3.70117 12.0472 3.70117ZM5.91508 2.93117C5.91508 2.80539 6.01297 2.70695 6.1393 2.70695H7.9593C8.08508 2.70695 8.18353 2.80484 8.18353 2.93117V3.70117H5.91511L5.91508 2.93117ZM9.62508 13.0533C9.61086 13.1654 9.51297 13.2491 9.40086 13.2491L4.69713 13.2496C4.58503 13.2496 4.48713 13.1654 4.47291 13.0539L3.71713 5.07386H10.395L9.62508 13.0533Z" fill="currentColor"/>
</g>
<defs>
<clipPath id="clip0_17431_100335">
<rect width="14" height="14" fill="white" transform="translate(0.0507812 0.985352)"/>
</clipPath>
</defs>
</svg>
