<svg width="23" height="28" viewBox="0 0 23 28" fill="none" xmlns="http://www.w3.org/2000/svg">
<path fill-rule="evenodd" clip-rule="evenodd" d="M5.79118 0.534935H2.58601L2.58736 0.533936C1.18565 0.533936 0.0634766 1.65614 0.0634766 3.05781V24.9699C0.0634766 26.3727 1.18568 27.5339 2.58736 27.5339H20.4136C21.7718 27.5339 22.5821 26.6716 22.8438 25.5173H4C2.89543 25.5173 2 24.6219 2 23.5173C2 22.4128 2.89543 21.5173 4 21.5173H22.9374V3.05881C22.9374 1.65711 21.8152 0.534935 20.4136 0.534935H12.2417V11.2707L9.03658 9.10752L5.79118 11.2707V0.534935ZM19.5305 4.34129L17.5678 3.21911L15.605 4.34129V6.58461L17.5678 7.70678L19.5305 6.58461V4.34129Z" fill="currentColor"/>
</svg>
