<svg width="16" height="10" viewBox="0 0 16 10" fill="none" xmlns="http://www.w3.org/2000/svg">
<path d="M15.0528 6.69017V0.320248C15.0528 0.320248 15.0528 0.222749 14.9684 0.146504C14.8872 0.0727538 14.8109 0.0727539 14.8109 0.0727539H13.4747C13.4747 0.0727539 13.3728 0.0727538 13.3009 0.140253C13.2084 0.227128 13.2091 0.332749 13.2091 0.332749V5.08587H4.36283L5.82533 3.62337C5.91846 3.53025 5.91846 3.37838 5.82533 3.28524L4.86034 2.32025C4.76721 2.22713 4.61535 2.22713 4.52221 2.32025L1.01533 5.82649C0.965957 5.87587 0.943456 5.94274 0.946581 6.00774C0.943456 6.07274 0.965332 6.13961 1.01533 6.18899L4.52157 9.69523C4.6147 9.78835 4.76656 9.78835 4.8597 9.69523L5.82469 8.73023C5.91781 8.63711 5.91781 8.48524 5.82469 8.39211L4.36219 6.92961H14.8134C14.9453 6.92961 15.0528 6.82142 15.0528 6.69017Z" fill="currentColor"/>
</svg>
