<svg width="12" height="14" viewBox="0 0 12 14" fill="none" xmlns="http://www.w3.org/2000/svg">
<path d="M11.047 2.70117H8.55487V1.93117C8.55487 1.04906 7.84064 0.335449 6.95915 0.335449H5.13915C4.25703 0.335449 3.54343 1.04967 3.54343 1.93117V2.70117H1.05128C0.673397 2.70117 0.365509 3.00906 0.365509 3.38695C0.365509 3.76483 0.673397 4.07272 1.05128 4.07272H1.33129L2.10129 12.1784C2.1855 13.0042 2.85706 13.6206 3.69701 13.6206H8.41487C9.24064 13.6206 9.927 13.0048 10.0106 12.1784L10.7806 4.07272H11.0606C11.4385 4.07272 11.7464 3.76483 11.7464 3.38695C11.7469 3.0096 11.4391 2.70117 11.047 2.70117ZM4.91487 1.93117C4.91487 1.80539 5.01276 1.70695 5.13909 1.70695H6.95909C7.08487 1.70695 7.18331 1.80484 7.18331 1.93117V2.70117H4.91489L4.91487 1.93117ZM8.62487 12.0533C8.61065 12.1654 8.51276 12.2491 8.40064 12.2491L3.69692 12.2496C3.58481 12.2496 3.48692 12.1654 3.4727 12.0539L2.71692 4.07386H9.39478L8.62487 12.0533Z" fill="currentColor"/>
</svg>
