<svg width="21" height="21" viewBox="0 0 21 21" fill="none" xmlns="http://www.w3.org/2000/svg">
<path fill-rule="evenodd" clip-rule="evenodd" d="M12.9307 14.3593L14.7782 16.2068V16.2076C14.8814 16.064 14.9958 15.9287 15.1214 15.8031C15.247 15.6782 15.3816 15.5631 15.5252 15.4591L13.6791 13.6116C13.5602 13.7409 13.4391 13.868 13.3143 13.9944C13.1886 14.1208 13.06 14.2404 12.9314 14.3593L12.9307 14.3593ZM19.8223 20.5038C20.1947 20.1308 20.1947 19.5274 19.8223 19.155L16.8554 16.188C16.483 15.8157 15.8789 15.8157 15.5065 16.188C15.1342 16.5604 15.1342 17.1645 15.5065 17.5369L18.4743 20.5038C18.8474 20.8747 19.4493 20.8747 19.8223 20.5038Z" fill="currentColor"/>
<path d="M0.101562 7.81979C0.101562 9.83609 0.902612 11.7696 2.32797 13.1953C3.75431 14.6191 5.68635 15.4185 7.70215 15.4185C9.71699 15.4185 11.65 14.6191 13.0763 13.1953C14.5017 11.7696 15.3018 9.83609 15.3018 7.81979C15.3018 5.80349 14.5017 3.86999 13.0763 2.44428C11.651 1.01857 9.71795 0.218262 7.70215 0.218262C5.68635 0.218262 3.75333 1.01857 2.32797 2.44428C0.902612 3.87001 0.101562 5.80349 0.101562 7.81979Z" fill="currentColor"/>
</svg>
