<svg width="23" height="21" viewBox="0 0 23 21" fill="none" xmlns="http://www.w3.org/2000/svg">
<circle cx="11.5254" cy="10.8027" r="10" fill="url(#paint0_linear_16316_5391)"/>
<path fill-rule="evenodd" clip-rule="evenodd" d="M12.2026 6.74523C12.2026 7.26325 11.7925 7.68054 11.2673 7.68054C10.7493 7.68054 10.332 7.26325 10.332 6.74523C10.332 6.22002 10.7493 5.80273 11.2673 5.80273C11.7925 5.80273 12.2026 6.22002 12.2026 6.74523ZM13.5255 13.6941C13.5255 13.9891 13.2953 14.1977 13.0003 14.1977H10.0721C9.7771 14.1977 9.54688 13.9891 9.54688 13.6941C9.54688 13.4135 9.7771 13.1905 10.0721 13.1905H10.9642V9.88811H10.1944C9.89941 9.88811 9.66918 9.67947 9.66918 9.38449C9.66918 9.10389 9.89941 8.88086 10.1944 8.88086H11.547C11.9139 8.88086 12.1082 9.13987 12.1082 9.52838V13.1905H13.0003C13.2953 13.1905 13.5255 13.4135 13.5255 13.6941Z" fill="#22342F"/>
<defs>
<linearGradient id="paint0_linear_16316_5391" x1="11.5254" y1="0.802734" x2="11.5254" y2="20.8027" gradientUnits="userSpaceOnUse">
<stop stop-color="#8AFFCE"/>
<stop offset="1" stop-color="#8AFFB8" stop-opacity="0.27"/>
</linearGradient>
</defs>
</svg>
