<svg width="53" height="53" viewBox="0 0 53 53" fill="none" xmlns="http://www.w3.org/2000/svg">
<path opacity="0.2" d="M52.1407 6.99602C52.1407 3.43252 49.2913 0.51416 45.7967 0.51416C42.1205 0.51416 39.2461 3.43252 39.2461 6.99602V14.937C43.154 19.3209 45.5651 25.1326 45.5651 31.5336V51.3415H52.1409L52.1407 6.99602Z" fill="currentColor"/>
<path d="M21.6004 10.1304C16.083 10.1304 10.8725 12.3473 6.93965 16.3804C3.00051 20.4197 0.839844 25.7994 0.839844 31.5359V51.3438H12.0187V38.568H31.1757V51.3438H42.3545L42.3608 31.5359C42.3608 19.7371 33.0418 10.1304 21.6004 10.1304ZM27.2101 26H16L15.9953 20.6453H27.2054L27.2101 26Z" fill="currentColor"/>
<g clip-path="url(#clip0_15951_9970)">
<path fill-rule="evenodd" clip-rule="evenodd" d="M12.6462 27.5791H17.5453V31.2138H6.48248L12.6462 27.5791ZM18.1007 15.3013C18.4173 15.3013 18.5756 15.4596 18.5756 15.7762C18.5756 16.0928 18.4173 16.4094 18.1007 16.4094C17.784 16.4094 17.4675 16.0928 17.4675 15.7762C17.4675 15.4596 17.7841 15.3013 18.1007 15.3013ZM19.1264 14.4604H15.4917C14.2274 14.4604 13.2796 15.4082 13.2796 16.6725V18.2535C13.2796 18.5701 13.5962 18.8867 13.9128 18.8867H18.1808V32.3216H36.515C37.1482 32.3216 37.6211 31.8467 37.6211 31.2155V28.6868C37.6211 28.0536 37.1462 27.5807 36.515 27.5807H23.5549V28.0556H34.6177C34.776 28.0556 34.9343 28.2139 34.9343 28.3722C34.9343 28.5305 34.776 28.6888 34.6177 28.6888H22.9217V15.5702C22.9217 14.937 22.4468 14.4642 21.8156 14.4642H19.1286L19.1264 14.4604Z" fill="#2E2E33"/>
</g>
<rect x="9.58984" y="43" width="24" height="4" transform="rotate(8.50394 9.58984 43)" fill="#2E2E33"/>
<rect x="9.05469" y="42.2119" width="24" height="4" transform="rotate(-15 9.05469 42.2119)" fill="#2E2E33"/>
<defs>
<clipPath id="clip0_15951_9970">
<rect width="21" height="12" fill="white" transform="translate(13 14)"/>
</clipPath>
</defs>
</svg>
