<svg width="48" height="48" viewBox="0 0 48 48" fill="none" xmlns="http://www.w3.org/2000/svg">
<g clip-path="url(#clip0_1805_3714)">
<g clip-path="url(#clip1_1805_3714)">
<path fill-rule="evenodd" clip-rule="evenodd" d="M37.9624 12.1681L41.9137 11.6637L44.1537 15.6782L41.6464 18.5131C41.9512 19.3855 42.1913 20.2793 42.3648 21.187L46.0072 22.5031L45.9382 27.101L42.3462 28.3036C42.1715 29.2092 41.9314 30.101 41.6278 30.9718L44.1278 33.9374L41.77 37.8858L38.063 37.1315C37.4577 37.8297 36.8016 38.4824 36.1003 39.0841L36.7813 42.8974L32.7654 45.1374L30.8702 43.4607V36.1975C32.5164 35.1742 33.9234 33.8089 34.9958 32.1943C36.0681 30.5796 36.7809 28.7533 37.0857 26.8391C37.3905 24.9249 37.2803 22.9675 36.7625 21.0996C36.2446 19.2318 35.3313 17.497 34.0844 16.013L37.9639 12.1695L37.9624 12.1681ZM13.249 16.1639C12.0345 17.6531 11.1513 19.384 10.6583 21.2414C10.1653 23.0988 10.0738 25.0398 10.3899 26.9353C10.706 28.8308 11.4224 30.6372 12.4914 32.234C13.5605 33.8309 14.9576 35.1816 16.5896 36.1961V43.3429L14.5019 45.1015L10.5535 42.7437L11.3064 39.0381C10.6082 38.4333 9.95555 37.7778 9.35378 37.0769L5.53901 37.7579L3.29899 33.742L5.80625 30.9071C5.50132 30.0342 5.26119 29.14 5.08783 28.2318L1.4455 26.9157L1.51302 22.3178L5.10509 21.1152C5.27955 20.2095 5.51966 19.3178 5.8235 18.447L3.32486 15.4814L5.68126 11.533L9.3624 12.2815L13.249 16.1639Z" fill="url(#paint0_linear_1805_3714)"/>
<path fill-rule="evenodd" clip-rule="evenodd" d="M10.7503 6.61061L14.7663 4.37056L17.5997 6.87786C18.4726 6.57286 19.3668 6.33273 20.2751 6.15945L21.5912 2.51709L26.189 2.58462L27.3902 6.17668C28.2958 6.35145 29.1875 6.59155 30.0584 6.89509L33.0226 4.39643L36.9695 6.7543L36.2166 10.4598C36.4887 10.6945 36.754 10.9383 37.0126 11.1912L33.1648 15.039C32.5157 14.4157 31.8062 13.8583 31.047 13.3752L28.8041 11.947V25.4402L26.3011 26.8856L23.7981 28.3311L21.2952 26.8856L18.7922 25.4402V11.947L16.5493 13.3752C15.7341 13.897 14.9769 14.5044 14.2907 15.187L10.4443 11.3406C10.7604 11.0274 11.0894 10.7237 11.4314 10.4297L10.7503 6.61061Z" fill="white"/>
</g>
</g>
<defs>
<linearGradient id="paint0_linear_1805_3714" x1="34.6885" y1="33.4431" x2="14.6509" y2="15.1902" gradientUnits="userSpaceOnUse">
<stop stop-color="#30BCD0"/>
<stop offset="1" stop-color="#CA28CC"/>
</linearGradient>
<clipPath id="clip0_1805_3714">
<rect width="48" height="48" rx="24" fill="white"/>
</clipPath>
<clipPath id="clip1_1805_3714">
<rect width="44.5445" height="42.6119" fill="white" transform="translate(1.45551 2.52246)"/>
</clipPath>
</defs>
</svg>
