<svg xmlns="http://www.w3.org/2000/svg" width="48" height="48" viewBox="0 0 48 48">
  <g id="surface1">
    <path
      style=" stroke:none;fill-rule:nonzero;fill:rgb(70.980392%,75.294118%,94.509804%);fill-opacity:1;"
      d="M 24 19.007812 L 24 29.902344 L 32.289062 34.683594 Z M 24 19.007812 "
    />
    <path
      style=" stroke:none;fill-rule:nonzero;fill:rgb(13.333333%,7.45098%,38.823529%);fill-opacity:1;"
      d="M 24 29.902344 L 15.710938 34.683594 L 32.289062 34.683594 Z M 24 29.902344 "
    />
    <path
      style=" stroke:none;fill-rule:nonzero;fill:rgb(1.176471%,64.705882%,92.941176%);fill-opacity:1;"
      d="M 24 19.007812 L 15.710938 34.683594 L 24.019531 29.902344 Z M 24 19.007812 "
    />
    <path
      style="fill:none;stroke-width:3.6213;stroke-linecap:butt;stroke-linejoin:miter;stroke:rgb(1.176471%,64.705882%,92.941176%);stroke-opacity:1;stroke-miterlimit:10;"
      d="M 135.5 38.891276 L 37.006673 209.492188 L 233.993327 209.492188 Z M 135.5 38.891276 "
      transform="matrix(0.177122,0,0,0.193548,0,0)"
    />
    <path
      style=" stroke:none;fill-rule:nonzero;fill:rgb(1.176471%,64.705882%,92.941176%);fill-opacity:1;"
      d="M 25.222656 7.664062 C 25.222656 8.402344 24.675781 9 24 9 C 23.324219 9 22.777344 8.402344 22.777344 7.664062 C 22.777344 6.925781 23.324219 6.328125 24 6.328125 C 24.675781 6.328125 25.222656 6.925781 25.222656 7.664062 Z M 25.222656 7.664062 "
    />
    <path
      style=" stroke:none;fill-rule:nonzero;fill:rgb(1.176471%,64.705882%,92.941176%);fill-opacity:1;"
      d="M 42.386719 40.316406 C 42.386719 41.054688 41.839844 41.652344 41.164062 41.652344 C 40.488281 41.652344 39.941406 41.054688 39.941406 40.316406 C 39.941406 39.578125 40.488281 38.980469 41.164062 38.980469 C 41.839844 38.980469 42.386719 39.578125 42.386719 40.316406 Z M 42.386719 40.316406 "
    />
    <path
      style=" stroke:none;fill-rule:nonzero;fill:rgb(1.176471%,64.705882%,92.941176%);fill-opacity:1;"
      d="M 8.058594 40.335938 C 8.058594 41.074219 7.511719 41.671875 6.835938 41.671875 C 6.160156 41.671875 5.613281 41.074219 5.613281 40.335938 C 5.613281 39.597656 6.160156 39 6.835938 39 C 7.511719 39 8.058594 39.597656 8.058594 40.335938 Z M 8.058594 40.335938 "
    />
  </g>
</svg>